<svg width="120" height="96" viewBox="0 0 120 96" fill="none" xmlns="http://www.w3.org/2000/svg">
<rect x="44.3164" width="75" height="75" rx="37.5" fill="#FFF018" fill-opacity="0.55"/>
<rect y="31.0703" width="60" height="60" rx="30" fill="#FFF018" fill-opacity="0.55"/>
<path d="M17.793 91.0029V51.9893L56.4099 24.1851C57.1079 23.6826 58.0491 23.6826 58.7471 24.1851L97.3641 51.9893V91.0029C97.3641 92.6597 96.0209 94.0029 94.3641 94.0029H57.5785H20.793C19.1361 94.0029 17.793 92.6597 17.793 91.0029Z" fill="white"/>
<path d="M97.3644 56.7617V93.8949H22.0371V63.7906C22.0371 62.1716 23.8603 61.2235 25.1857 62.1533L57.5789 84.8768L97.3644 56.7617Z" fill="#D9E5ED"/>
<path d="M17.793 51.9893V91.0029C17.793 92.6597 19.1361 94.0029 20.793 94.0029H57.5785H94.3641C96.0209 94.0029 97.3641 92.6597 97.3641 91.0029V51.9893M17.793 51.9893L56.4099 24.1851C57.1079 23.6826 58.0491 23.6826 58.7471 24.1851L97.3641 51.9893M17.793 51.9893L56.4272 79.1879C57.1178 79.674 58.0393 79.674 58.7298 79.1879L97.3641 51.9893" stroke="#004E87" stroke-width="2"/>
<path d="M47.0751 72.9971L26.0684 88.2747M89.0887 88.2747L68.0819 72.9971" stroke="#004E87" stroke-width="1.5" stroke-linecap="round"/>
<path d="M28.9316 16.1992V59.8358L56.4222 79.2828C57.1144 79.7725 58.0401 79.7725 58.7323 79.2828L86.2228 59.8358V16.1992C86.2228 13.9901 84.432 12.1992 82.2228 12.1992H57.5772H32.9316C30.7225 12.1992 28.9316 13.9901 28.9316 16.1992Z" fill="white"/>
<path d="M28.9316 16.1992V59.8358L56.4222 79.2828C57.1144 79.7725 58.0401 79.7725 58.7323 79.2828L86.2228 59.8358V16.1992C86.2228 13.9901 84.432 12.1992 82.2228 12.1992H57.5772H32.9316C30.7225 12.1992 28.9316 13.9901 28.9316 16.1992Z" stroke="#004E87" stroke-width="2"/>
<path d="M36.3594 29.2589V29.0415L37.5685 28.4709V21.0801L36.3594 20.5095V20.2921H39.3076L44.6469 25.8896V21.0801L42.9758 20.5095V20.2921H46.7799V20.5095L45.5979 21.0801V29.3269H44.5246L38.5196 23.1044V28.4709L40.1906 29.0415V29.2589H36.3594Z" fill="#004E87"/>
<path d="M47.5971 29.2589V29.0415L48.8062 28.4709V21.0801L47.5971 20.5095V20.2921H55.5042V22.6561H55.2868L54.1727 21.0393H51.3876V24.2592H53.344L54.1592 23.0637H54.3765V26.1749H54.1592L53.344 25.0065H51.3876V28.5117H54.458L55.6672 26.2836H55.8846V29.2589H47.5971Z" fill="#004E87"/>
<path d="M60.4418 29.3269L57.7653 21.1073L56.7056 20.5095V20.2921H61.5151V20.5095L60.3738 21.0393L61.8547 25.8352H61.9498L64.3002 20.2242H65.292L67.588 25.8352H67.6831L69.1776 21.0393L68.0228 20.5095V20.2921H71.1204V20.5095L70.2102 20.9714L67.4658 29.3269H66.474L64.0692 23.6886H63.9741L61.4335 29.3269H60.4418Z" fill="#004E87"/>
<path d="M75.0068 29.3948C74.3818 29.3948 73.8203 29.3314 73.3221 29.2046C72.824 29.0687 72.3575 28.8876 71.9227 28.6611L71.7869 26.3107H72.045L73.2406 28.1585C73.4308 28.3034 73.6527 28.4256 73.9063 28.5253C74.169 28.6158 74.4407 28.6611 74.7215 28.6611C75.1834 28.6611 75.5683 28.5615 75.8763 28.3622C76.1933 28.163 76.3518 27.846 76.3518 27.4112C76.3518 27.1576 76.2929 26.9448 76.1752 26.7727C76.0665 26.5915 75.8491 26.4149 75.5231 26.2428C75.197 26.0617 74.7124 25.8352 74.0693 25.5635C73.4263 25.3008 72.9326 24.9612 72.5885 24.5446C72.2443 24.1189 72.0722 23.6298 72.0722 23.0773C72.0722 22.6697 72.1763 22.2893 72.3847 21.936C72.593 21.5737 72.8692 21.2613 73.2134 20.9986C73.5576 20.7359 73.9425 20.5321 74.3682 20.3872C74.803 20.2332 75.2423 20.1562 75.6861 20.1562C76.1752 20.1562 76.6552 20.2151 77.1262 20.3329C77.5972 20.4506 78.0138 20.6091 78.3761 20.8084L78.512 22.9822H78.2674L77.1398 21.3926C76.9315 21.2386 76.7186 21.1209 76.5013 21.0393C76.2929 20.9488 76.0574 20.9035 75.7948 20.9035C75.4415 20.9035 75.1472 21.0122 74.9117 21.2296C74.6852 21.4379 74.572 21.7277 74.572 22.0991C74.572 22.3074 74.6264 22.4976 74.7351 22.6697C74.8438 22.8418 75.0294 23.0093 75.2921 23.1724C75.5548 23.3354 75.9216 23.5211 76.3926 23.7294C77.2258 24.0917 77.8327 24.4857 78.2131 24.9114C78.6026 25.3371 78.7973 25.8669 78.7973 26.5009C78.7973 27.0987 78.6207 27.615 78.2674 28.0498C77.9233 28.4755 77.4613 28.8061 76.8817 29.0415C76.302 29.277 75.677 29.3948 75.0068 29.3948Z" fill="#004E87"/>
<path d="M75.3376 36.0703H64.418C63.3134 36.0703 62.418 36.9657 62.418 38.0703V45.0113C62.418 46.1159 63.3134 47.0113 64.418 47.0113H75.3376C76.4421 47.0113 77.3376 46.1159 77.3376 45.0113V38.0703C77.3376 36.9657 76.4421 36.0703 75.3376 36.0703Z" fill="#D9E5ED"/>
<rect x="36.8887" y="37.1328" width="20.158" height="2.1219" rx="1.06095" fill="#004E87"/>
<rect x="36.8887" y="43.5" width="20.158" height="2.1219" rx="1.06095" fill="#004E87"/>
<rect x="36.8887" y="51.9883" width="41.377" height="2.1219" rx="1.06095" fill="#004E87"/>
<rect x="36.8887" y="58.3525" width="41.377" height="2.1219" rx="1.06095" fill="#004E87"/>
<rect x="36.8887" y="64.7178" width="28.6456" height="2.1219" rx="1.06095" fill="#004E87"/>
<rect x="62.1738" y="35.8271" width="15.4089" height="11.4303" rx="1.25" stroke="#004E87" stroke-width="1.5"/>
</svg>
