<svg width="134" height="102" viewBox="0 0 134 102" fill="none" xmlns="http://www.w3.org/2000/svg">
<rect x="53.1709" width="80" height="80" rx="40" fill="#FFF018" fill-opacity="0.55"/>
<rect y="38.0977" width="60" height="60" rx="30" fill="#FFF018" fill-opacity="0.55"/>
<path d="M97.1715 93.0352V97.4992C97.1715 99.4322 95.6045 100.999 93.6715 100.999H15.9629C14.0299 100.999 12.4629 99.4322 12.4629 97.4992V93.0352L18.9789 80.7271V35.7188C18.9789 33.7858 20.5459 32.2188 22.4789 32.2188H87.1554C89.0884 32.2188 90.6554 33.7858 90.6554 35.7188V80.7271L97.1715 93.0352Z" fill="white"/>
<path d="M19.3418 92.9747V100.999H97.293V93.5478L92.7076 85.5234H23.354L19.3418 92.9747Z" fill="#D9E5ED"/>
<path d="M12.4629 93.0352H97.1715M12.4629 93.0352V97.4992C12.4629 99.4322 14.0299 100.999 15.9629 100.999H93.6715C95.6045 100.999 97.1715 99.4322 97.1715 97.4992V93.0352M12.4629 93.0352L18.9789 80.7271M97.1715 93.0352L90.6554 80.7271M18.9789 80.7271H90.6554M18.9789 80.7271V35.7188C18.9789 33.7858 20.5459 32.2188 22.4789 32.2188H87.1554C89.0884 32.2188 90.6554 33.7858 90.6554 35.7188V80.7271" stroke="#004E87" stroke-width="2"/>
<path d="M29.6582 44.0352C29.6582 43.2067 30.3298 42.5352 31.1582 42.5352H84.6826V74.6327H29.6582V44.0352Z" fill="#D9E5ED"/>
<path d="M34 54.8676V54.6559L35.1779 54.1V46.9L34 46.3441V46.1324H36.8721L42.0735 51.5853V46.9L40.4456 46.3441V46.1324H44.1515V46.3441L43 46.9V54.9338H41.9544L36.1044 48.8721V54.1L37.7324 54.6559V54.8676H34Z" fill="#004E87"/>
<path d="M44.9476 54.8676V54.6559L46.1255 54.1V46.9L44.9476 46.3441V46.1324H52.6505V48.4353H52.4387L51.3534 46.8603H48.6402V49.9971H50.5461L51.3402 48.8324H51.552V51.8632H51.3402L50.5461 50.725H48.6402V54.1397H51.6314L52.8093 51.9691H53.0211V54.8676H44.9476Z" fill="#004E87"/>
<path d="M57.4606 54.9338L54.8532 46.9265L53.8209 46.3441V46.1324H58.5062V46.3441L57.3944 46.8603L58.8371 51.5324H58.9297L61.2194 46.0662H62.1856L64.4224 51.5324H64.515L65.9709 46.8603L64.8459 46.3441V46.1324H67.8635V46.3441L66.9768 46.7941L64.3032 54.9338H63.3371L60.9944 49.4412H60.9018L58.4268 54.9338H57.4606Z" fill="#004E87"/>
<path d="M71.6496 55C71.0407 55 70.4937 54.9382 70.0084 54.8147C69.5231 54.6824 69.0687 54.5059 68.6451 54.2853L68.5128 51.9956H68.7643L69.929 53.7956C70.1143 53.9368 70.3304 54.0559 70.5775 54.1529C70.8334 54.2412 71.0981 54.2853 71.3716 54.2853C71.8216 54.2853 72.1966 54.1882 72.4966 53.9941C72.8054 53.8 72.9598 53.4912 72.9598 53.0676C72.9598 52.8206 72.9025 52.6132 72.7878 52.4456C72.6819 52.2691 72.4701 52.0971 72.1525 51.9294C71.8348 51.7529 71.3628 51.5324 70.7363 51.2676C70.1098 51.0118 69.629 50.6809 69.2937 50.275C68.9584 49.8603 68.7907 49.3838 68.7907 48.8456C68.7907 48.4485 68.8922 48.0779 69.0951 47.7338C69.2981 47.3809 69.5672 47.0765 69.9025 46.8206C70.2378 46.5647 70.6128 46.3662 71.0275 46.225C71.451 46.075 71.879 46 72.3113 46C72.7878 46 73.2554 46.0574 73.7143 46.1721C74.1731 46.2868 74.579 46.4412 74.9319 46.6353L75.0643 48.7529H74.826L73.7275 47.2044C73.5246 47.0544 73.3172 46.9397 73.1054 46.8603C72.9025 46.7721 72.6731 46.7279 72.4172 46.7279C72.0731 46.7279 71.7863 46.8338 71.5569 47.0456C71.3363 47.2485 71.226 47.5309 71.226 47.8926C71.226 48.0956 71.279 48.2809 71.3848 48.4485C71.4907 48.6162 71.6716 48.7794 71.9275 48.9382C72.1834 49.0971 72.5407 49.2779 72.9996 49.4809C73.8113 49.8338 74.4025 50.2176 74.7731 50.6324C75.1525 51.0471 75.3422 51.5632 75.3422 52.1809C75.3422 52.7632 75.1701 53.2662 74.826 53.6897C74.4907 54.1044 74.0407 54.4265 73.476 54.6559C72.9113 54.8853 72.3025 55 71.6496 55Z" fill="#004E87"/>
<path d="M75 59H60C58.8954 59 58 59.8954 58 61V67C58 68.1046 58.8954 69 60 69H75C76.1046 69 77 68.1046 77 67V61C77 59.8954 76.1046 59 75 59Z" fill="white"/>
<path d="M66.1807 66.5L65.8184 65.3105H63.9966L63.6343 66.5H62.4927L64.2563 61.4824H65.5518L67.3223 66.5H66.1807ZM65.5654 64.4219C65.2305 63.3441 65.0413 62.7345 64.998 62.5933C64.957 62.452 64.9274 62.3403 64.9092 62.2583C64.834 62.55 64.6187 63.2712 64.2632 64.4219H65.5654ZM72.1006 63.9536C72.1006 64.7762 71.8659 65.4062 71.3965 65.8438C70.9294 66.2812 70.2537 66.5 69.3696 66.5H67.9546V61.5029H69.5234C70.3392 61.5029 70.9727 61.7183 71.4238 62.1489C71.875 62.5796 72.1006 63.1812 72.1006 63.9536ZM71 63.981C71 62.9077 70.526 62.3711 69.5781 62.3711H69.0142V65.625H69.4688C70.4896 65.625 71 65.077 71 63.981Z" fill="#004E87"/>
<rect x="34" y="60" width="19" height="2" rx="1" fill="#004E87"/>
<rect x="34" y="66" width="19" height="2" rx="1" fill="#004E87"/>
<rect x="57.75" y="58.75" width="19.5" height="10.5" rx="1.25" stroke="#004E87" stroke-width="1.5"/>
<rect x="25.0732" y="37.9492" width="59.6098" height="36.6829" rx="1.5" stroke="#004E87" stroke-width="1.5"/>
<g filter="url(#filter0_d)">
<path d="M111.532 18.1484H69.6953C67.7623 18.1484 66.1953 19.7154 66.1953 21.6484V47.5992C66.1953 49.5322 67.7623 51.0992 69.6953 51.0992H72.8823V60.8706C72.8823 61.2787 73.3448 61.5149 73.6754 61.2757L87.7423 51.0992H111.532C113.465 51.0992 115.032 49.5322 115.032 47.5992V21.6484C115.032 19.7154 113.465 18.1484 111.532 18.1484Z" fill="white"/>
<path d="M111.532 18.1484H69.6953C67.7623 18.1484 66.1953 19.7154 66.1953 21.6484V47.5992C66.1953 49.5322 67.7623 51.0992 69.6953 51.0992H72.8823V60.8706C72.8823 61.2787 73.3448 61.5149 73.6754 61.2757L87.7423 51.0992H111.532C113.465 51.0992 115.032 49.5322 115.032 47.5992V21.6484C115.032 19.7154 113.465 18.1484 111.532 18.1484Z" stroke="#004E87" stroke-width="2"/>
</g>
<path d="M82 39V36.5H88L87.2072 39.2747C87.0846 39.704 86.6922 40 86.2457 40H83C82.4477 40 82 39.5523 82 39Z" fill="#D2DFE8"/>
<path d="M82 45V36.5H88L85.2207 45.3011C85.0893 45.7172 84.7034 46 84.2671 46H83C82.4477 46 82 45.5523 82 45Z" stroke="#004E87" stroke-width="1.5"/>
<path d="M102.09 26.6347L94.6793 29.9693C93.9616 30.2923 93.5 31.0061 93.5 31.7932V37.5L102.09 41.3653C102.751 41.6631 103.5 41.1791 103.5 40.4534V27.5466C103.5 26.8209 102.751 26.3369 102.09 26.6347Z" fill="#D2DFE8"/>
<path d="M90.5 28.5H84.5V36.5H90.5V28.5Z" stroke="#004E87" stroke-width="1.5"/>
<path d="M84.5 36.5V28.5H80C78.6193 28.5 77.5 29.6193 77.5 31V34C77.5 35.3807 78.6193 36.5 80 36.5H84.5Z" stroke="#004E87" stroke-width="1.5"/>
<path d="M102.11 23.5879L90.5 28.5V36.5L102.11 41.4121C102.77 41.691 103.5 41.207 103.5 40.4911V24.5089C103.5 23.793 102.77 23.309 102.11 23.5879Z" stroke="#004E87" stroke-width="1.5"/>
<path d="M70.7475 40.274C69.242 40.9657 68.5822 42.747 69.274 44.2525C69.9657 45.758 71.747 46.4178 73.2525 45.726L70.7475 40.274ZM110.252 28.726C111.758 28.0343 112.418 26.253 111.726 24.7475C111.034 23.242 109.253 22.5822 107.748 23.274L110.252 28.726ZM73.2525 45.726L110.252 28.726L107.748 23.274L70.7475 40.274L73.2525 45.726Z" fill="white"/>
<path d="M71.4781 41.8642C70.8508 42.1524 70.5759 42.8946 70.8642 43.5219C71.1524 44.1492 71.8946 44.4241 72.5219 44.1358L71.4781 41.8642ZM109.522 27.1358C110.149 26.8476 110.424 26.1054 110.136 25.4781C109.848 24.8508 109.105 24.5759 108.478 24.8642L109.522 27.1358ZM72.5219 44.1358L109.522 27.1358L108.478 24.8642L71.4781 41.8642L72.5219 44.1358Z" fill="#0072C5"/>
<defs>
<filter id="filter0_d" x="61.1953" y="15.1484" width="58.8369" height="53.2249" filterUnits="userSpaceOnUse" color-interpolation-filters="sRGB">
<feFlood flood-opacity="0" result="BackgroundImageFix"/>
<feColorMatrix in="SourceAlpha" type="matrix" values="0 0 0 0 0 0 0 0 0 0 0 0 0 0 0 0 0 0 127 0"/>
<feOffset dy="2"/>
<feGaussianBlur stdDeviation="2"/>
<feColorMatrix type="matrix" values="0 0 0 0 0 0 0 0 0 0.176471 0 0 0 0 0.317647 0 0 0 0.3 0"/>
<feBlend mode="normal" in2="BackgroundImageFix" result="effect1_dropShadow"/>
<feBlend mode="normal" in="SourceGraphic" in2="effect1_dropShadow" result="shape"/>
</filter>
</defs>
</svg>
