<svg width="146" height="105" viewBox="0 0 146 105" fill="none" xmlns="http://www.w3.org/2000/svg">
<rect x="66" width="80" height="80" rx="40" fill="#FFF018" fill-opacity="0.55"/>
<rect y="32" width="50" height="50" rx="25" fill="#FFF018" fill-opacity="0.55"/>
<path d="M106.526 84.7368V90.5C106.526 92.433 104.959 94 103.026 94H11.5C9.567 94 8 92.433 8 90.5V84.7368L15.5789 70.421V17.5C15.5789 15.567 17.146 14 19.0789 14H95.4474C97.3804 14 98.9474 15.567 98.9474 17.5V70.421L106.526 84.7368Z" fill="white"/>
<path d="M15 84.6667V94H106.667V85.3333L101.333 75H20.922C20.1545 75 19.4546 75.4393 19.1209 76.1305L15 84.6667Z" fill="#D9E5ED"/>
<path d="M8 84.7368H106.526M8 84.7368V90.5C8 92.433 9.567 94 11.5 94H103.026C104.959 94 106.526 92.433 106.526 90.5V84.7368M8 84.7368L15.5789 70.421M106.526 84.7368L98.9474 70.421M15.5789 70.421H98.9474M15.5789 70.421V17.5C15.5789 15.567 17.146 14 19.0789 14H95.4474C97.3804 14 98.9474 15.567 98.9474 17.5V70.421" stroke="#004E87" stroke-width="2"/>
<path d="M27 27C27 25.8954 27.8954 25 29 25H92V63.3333H27V27Z" fill="#D9E5ED"/>
<rect x="22.668" y="20.6641" width="69.3333" height="42.6667" rx="1.5" stroke="#004E87" stroke-width="1.5"/>
<path d="M30.9023 39.0013V38.7453L32.3263 38.0732V29.3692L30.9023 28.6972V28.4412H34.3743L40.6623 35.0332V29.3692L38.6943 28.6972V28.4412H43.1743V28.6972L41.7823 29.3692V39.0813H40.5183L33.4463 31.7533V38.0732L35.4143 38.7453V39.0013H30.9023Z" fill="#004E87"/>
<path d="M44.1367 39.0013V38.7453L45.5607 38.0732V29.3692L44.1367 28.6972V28.4412H53.4487V31.2252H53.1927L51.8807 29.3212H48.6007V33.1132H50.9047L51.8647 31.7052H52.1207V35.3693H51.8647L50.9047 33.9932H48.6007V38.1213H52.2167L53.6407 35.4973H53.8967V39.0013H44.1367Z" fill="#004E87"/>
<path d="M59.2636 39.0813L56.1116 29.4012L54.8636 28.6972V28.4412H60.5276V28.6972L59.1836 29.3212L60.9276 34.9693H61.0396L63.8076 28.3612H64.9756L67.6796 34.9693H67.7916L69.5516 29.3212L68.1916 28.6972V28.4412H71.8396V28.6972L70.7676 29.2413L67.5356 39.0813H66.3676L63.5356 32.4412H63.4236L60.4316 39.0813H59.2636Z" fill="#004E87"/>
<path d="M76.4165 39.1613C75.6805 39.1613 75.0191 39.0866 74.4325 38.9373C73.8458 38.7773 73.2965 38.5639 72.7845 38.2972L72.6245 35.5293H72.9285L74.3365 37.7052C74.5605 37.8759 74.8218 38.0199 75.1205 38.1372C75.4298 38.2439 75.7498 38.2972 76.0805 38.2972C76.6245 38.2972 77.0778 38.1799 77.4405 37.9453C77.8138 37.7106 78.0005 37.3373 78.0005 36.8253C78.0005 36.5266 77.9311 36.2759 77.7925 36.0732C77.6645 35.8599 77.4085 35.6519 77.0245 35.4493C76.6405 35.2359 76.0698 34.9693 75.3125 34.6493C74.5551 34.3399 73.9738 33.9399 73.5685 33.4493C73.1631 32.9479 72.9605 32.3719 72.9605 31.7213C72.9605 31.2413 73.0831 30.7933 73.3285 30.3772C73.5738 29.9506 73.8991 29.5826 74.3045 29.2732C74.7098 28.9639 75.1631 28.7239 75.6645 28.5532C76.1765 28.3719 76.6938 28.2812 77.2165 28.2812C77.7925 28.2812 78.3578 28.3506 78.9125 28.4893C79.4671 28.6279 79.9578 28.8146 80.3845 29.0492L80.5445 31.6093H80.2565L78.9285 29.7372C78.6831 29.5559 78.4325 29.4173 78.1765 29.3212C77.9311 29.2146 77.6538 29.1613 77.3445 29.1613C76.9285 29.1613 76.5818 29.2893 76.3045 29.5452C76.0378 29.7906 75.9045 30.1319 75.9045 30.5693C75.9045 30.8146 75.9685 31.0386 76.0965 31.2413C76.2245 31.4439 76.4431 31.6412 76.7525 31.8333C77.0618 32.0253 77.4938 32.2439 78.0485 32.4893C79.0298 32.9159 79.7445 33.3799 80.1925 33.8812C80.6511 34.3826 80.8805 35.0066 80.8805 35.7533C80.8805 36.4573 80.6725 37.0653 80.2565 37.5773C79.8511 38.0786 79.3071 38.4679 78.6245 38.7453C77.9418 39.0226 77.2058 39.1613 76.4165 39.1613Z" fill="#004E87"/>
<rect x="31" y="44" width="53" height="2" rx="1" fill="#004E87"/>
<rect x="31" y="50" width="53" height="2" rx="1" fill="#004E87"/>
<rect x="31.3125" y="56" width="30" height="2" rx="1" fill="#004E87"/>
<g filter="url(#filter0_d)">
<path d="M121 25H77C74.2386 25 72 27.2386 72 30V95C72 97.7614 74.2386 100 77 100H121C123.761 100 126 97.7614 126 95V30C126 27.2386 123.761 25 121 25Z" fill="white"/>
<path d="M120.75 39.0625H82.4375C81.3329 39.0625 80.4375 39.9579 80.4375 41.0625V88.75H120.75V39.0625Z" fill="#D9E5ED"/>
<path d="M113.125 55H103.062C101.958 55 101.062 55.8954 101.062 57V63.3125C101.062 64.4171 101.958 65.3125 103.062 65.3125H113.125C114.23 65.3125 115.125 64.4171 115.125 63.3125V57C115.125 55.8954 114.23 55 113.125 55Z" fill="white"/>
<path d="M121.375 25H77C74.2386 25 72 27.2386 72 30V95C72 97.7614 74.2386 100 77 100H121.375C124.136 100 126.375 97.7614 126.375 95V30C126.375 27.2386 124.136 25 121.375 25Z" stroke="#004E87" stroke-width="2"/>
<rect x="93.0938" y="29.2998" width="12.1875" height="2.5" rx="1.25" fill="#004E87"/>
<rect x="82.3125" y="56.4062" width="14.0625" height="2" rx="1" fill="#004E87"/>
<rect x="82.3125" y="62.0312" width="14.0625" height="2" rx="1" fill="#004E87"/>
<rect x="82.3125" y="70" width="33.75" height="2" rx="1" fill="#004E87"/>
<rect x="82.3125" y="75.625" width="33.75" height="2" rx="1" fill="#004E87"/>
<rect x="82.3125" y="81.25" width="23.4375" height="2" rx="1" fill="#004E87"/>
<rect x="100.875" y="54.8125" width="14.4375" height="10.6875" rx="1.25" stroke="#004E87" stroke-width="1.5"/>
<path d="M81 50.8824V50.6941L82.0471 50.2V43.8L81 43.3059V43.1176H83.5529L88.1765 47.9647V43.8L86.7294 43.3059V43.1176H90.0235V43.3059L89 43.8V50.9412H88.0706L82.8706 45.5529V50.2L84.3176 50.6941V50.8824H81Z" fill="#004E87"/>
<path d="M90.7312 50.8824V50.6941L91.7782 50.2V43.8L90.7312 43.3059V43.1176H97.5782V45.1647H97.39L96.4253 43.7647H94.0135V46.5529H95.7076L96.4135 45.5176H96.6017V48.2118H96.4135L95.7076 47.2H94.0135V50.2353H96.6723L97.7194 48.3059H97.9076V50.8824H90.7312Z" fill="#004E87"/>
<path d="M101.854 50.9412L99.5362 43.8235L98.6186 43.3059V43.1176H102.783V43.3059L101.795 43.7647L103.077 47.9176H103.16L105.195 43.0588H106.054L108.042 47.9176H108.124L109.419 43.7647L108.419 43.3059V43.1176H111.101V43.3059L110.313 43.7059L107.936 50.9412H107.077L104.995 46.0588H104.913L102.713 50.9412H101.854Z" fill="#004E87"/>
<path d="M114.466 51C113.925 51 113.439 50.9451 113.007 50.8353C112.576 50.7176 112.172 50.5608 111.796 50.3647L111.678 48.3294H111.902L112.937 49.9294C113.102 50.0549 113.294 50.1608 113.513 50.2471C113.741 50.3255 113.976 50.3647 114.219 50.3647C114.619 50.3647 114.953 50.2784 115.219 50.1059C115.494 49.9333 115.631 49.6588 115.631 49.2824C115.631 49.0627 115.58 48.8784 115.478 48.7294C115.384 48.5725 115.196 48.4196 114.913 48.2706C114.631 48.1137 114.211 47.9176 113.655 47.6824C113.098 47.4549 112.67 47.1608 112.372 46.8C112.074 46.4314 111.925 46.0078 111.925 45.5294C111.925 45.1765 112.015 44.8471 112.196 44.5412C112.376 44.2275 112.615 43.9569 112.913 43.7294C113.211 43.502 113.545 43.3255 113.913 43.2C114.29 43.0667 114.67 43 115.055 43C115.478 43 115.894 43.051 116.302 43.1529C116.709 43.2549 117.07 43.3922 117.384 43.5647L117.502 45.4471H117.29L116.313 44.0706C116.133 43.9373 115.949 43.8353 115.76 43.7647C115.58 43.6863 115.376 43.6471 115.149 43.6471C114.843 43.6471 114.588 43.7412 114.384 43.9294C114.188 44.1098 114.09 44.3608 114.09 44.6824C114.09 44.8627 114.137 45.0275 114.231 45.1765C114.325 45.3255 114.486 45.4706 114.713 45.6118C114.941 45.7529 115.258 45.9137 115.666 46.0941C116.388 46.4078 116.913 46.749 117.243 47.1176C117.58 47.4863 117.749 47.9451 117.749 48.4941C117.749 49.0118 117.596 49.4588 117.29 49.8353C116.992 50.2039 116.592 50.4902 116.09 50.6941C115.588 50.898 115.047 51 114.466 51Z" fill="#004E87"/>
<rect x="108.562" y="29.2998" width="2.5" height="2.5" rx="1.25" fill="#004E87"/>
<rect x="97.75" y="93" width="2.5" height="2.5" rx="1.25" fill="#004E87"/>
<rect x="89.75" y="93" width="2.5" height="2.5" rx="1.25" fill="#004E87"/>
<rect x="105.75" y="93" width="2.5" height="2.5" rx="1.25" fill="#004E87"/>
<rect x="77.4375" y="36.0625" width="43.5" height="52.875" rx="1.25" stroke="#004E87" stroke-width="1.5"/>
</g>
<defs>
<filter id="filter0_d" x="65" y="20" width="64.375" height="85" filterUnits="userSpaceOnUse" color-interpolation-filters="sRGB">
<feFlood flood-opacity="0" result="BackgroundImageFix"/>
<feColorMatrix in="SourceAlpha" type="matrix" values="0 0 0 0 0 0 0 0 0 0 0 0 0 0 0 0 0 0 127 0"/>
<feOffset dx="-2"/>
<feGaussianBlur stdDeviation="2"/>
<feColorMatrix type="matrix" values="0 0 0 0 0 0 0 0 0 0.176471 0 0 0 0 0.317647 0 0 0 0.3 0"/>
<feBlend mode="normal" in2="BackgroundImageFix" result="effect1_dropShadow"/>
<feBlend mode="normal" in="SourceGraphic" in2="effect1_dropShadow" result="shape"/>
</filter>
</defs>
</svg>
