<svg width="144" height="95" viewBox="0 0 144 95" fill="none" xmlns="http://www.w3.org/2000/svg">
<rect x="56.1699" width="80" height="80" rx="40" fill="#FFF018" fill-opacity="0.55"/>
<rect y="32.0977" width="60" height="60" rx="30" fill="#FFF018" fill-opacity="0.55"/>
<path d="M96.1715 86.0352V90.4992C96.1715 92.4322 94.6045 93.9992 92.6715 93.9992H14.9629C13.0299 93.9992 11.4629 92.4322 11.4629 90.4992V86.0352L17.9789 73.7271V28.7188C17.9789 26.7858 19.5459 25.2188 21.4789 25.2188H86.1554C88.0884 25.2188 89.6554 26.7858 89.6554 28.7188V73.7271L96.1715 86.0352Z" fill="white"/>
<path d="M18.3418 85.9747V93.999H96.293V86.5478L91.7076 78.5234H22.354L18.3418 85.9747Z" fill="#D9E5ED"/>
<path d="M11.4629 86.0352H96.1715M11.4629 86.0352V90.4992C11.4629 92.4322 13.0299 93.9992 14.9629 93.9992H92.6715C94.6045 93.9992 96.1715 92.4322 96.1715 90.4992V86.0352M11.4629 86.0352L17.9789 73.7271M96.1715 86.0352L89.6554 73.7271M17.9789 73.7271H89.6554M17.9789 73.7271V28.7188C17.9789 26.7858 19.5459 25.2188 21.4789 25.2188H86.1554C88.0884 25.2188 89.6554 26.7858 89.6554 28.7188V73.7271" stroke="#004E87" stroke-width="2"/>
<path d="M28.6582 37.0352C28.6582 36.2067 29.3298 35.5352 30.1582 35.5352H83.6826V67.6327H28.6582V37.0352Z" fill="#D9E5ED"/>
<rect x="24.0723" y="30.9502" width="59.6098" height="36.6829" rx="1.5" stroke="#004E87" stroke-width="1.5"/>
<g filter="url(#filter0_d)">
<path d="M104.532 10.1494H67.6953C65.7623 10.1494 64.1953 11.7164 64.1953 13.6494V34.6002C64.1953 36.5332 65.7623 38.1002 67.6953 38.1002H70.8823V47.8716C70.8823 48.2797 71.3448 48.5159 71.6754 48.2767L85.7423 38.1002H104.532C106.465 38.1002 108.032 36.5332 108.032 34.6002V13.6494C108.032 11.7164 106.465 10.1494 104.532 10.1494Z" fill="white" stroke="#004E87" stroke-width="2"/>
<path d="M70.8817 15.8799L82.0267 24.0706M102.088 15.8799L90.9427 24.0706M90.9427 24.0706L86.4847 27.3469L82.0267 24.0706M90.9427 24.0706L102.088 32.3637M82.0267 24.0706L70.1387 32.3637" stroke="#004E87" stroke-width="1.5" stroke-linecap="round"/>
</g>
<rect x="114.635" y="22.9287" width="21.7805" height="2.29268" rx="1" fill="#004E87"/>
<rect x="114.635" y="22.9287" width="21.7805" height="2.29268" rx="1" fill="#004E87"/>
<rect x="114.635" y="22.9287" width="21.7805" height="2.29268" rx="1" fill="#004E87"/>
<rect x="114.635" y="16.0498" width="28.6585" height="2.29268" rx="1" fill="#004E87"/>
<rect x="114.635" y="16.0498" width="28.6585" height="2.29268" rx="1" fill="#004E87"/>
<rect x="114.635" y="16.0498" width="28.6585" height="2.29268" rx="1" fill="#004E87"/>
<rect x="114.633" y="29.8047" width="14.9024" height="2.29268" rx="1" fill="#004E87"/>
<rect x="114.633" y="29.8047" width="14.9024" height="2.29268" rx="1" fill="#004E87"/>
<rect x="114.633" y="29.8047" width="14.9024" height="2.29268" rx="1" fill="#004E87"/>
<defs>
<filter id="filter0_d" x="59.1953" y="7.14941" width="53.8369" height="48.2249" filterUnits="userSpaceOnUse" color-interpolation-filters="sRGB">
<feFlood flood-opacity="0" result="BackgroundImageFix"/>
<feColorMatrix in="SourceAlpha" type="matrix" values="0 0 0 0 0 0 0 0 0 0 0 0 0 0 0 0 0 0 127 0"/>
<feOffset dy="2"/>
<feGaussianBlur stdDeviation="2"/>
<feColorMatrix type="matrix" values="0 0 0 0 0 0 0 0 0 0.176471 0 0 0 0 0.317647 0 0 0 0.3 0"/>
<feBlend mode="normal" in2="BackgroundImageFix" result="effect1_dropShadow"/>
<feBlend mode="normal" in="SourceGraphic" in2="effect1_dropShadow" result="shape"/>
</filter>
</defs>
</svg>
